<svg xmlns="http://www.w3.org/2000/svg" xmlns:xlink="http://www.w3.org/1999/xlink" width="500" zoomAndPan="magnify" viewBox="0 0 375 112.499997" height="150" preserveAspectRatio="xMidYMid meet" version="1.0"><defs><g/><clipPath id="0bbacc869b"><path d="M 0.828125 0 L 374.167969 0 L 374.167969 112.003906 L 0.828125 112.003906 Z M 0.828125 0 " clip-rule="nonzero"/></clipPath><clipPath id="060cf5bab9"><path d="M 2 0 L 373 0 L 373 112.003906 L 2 112.003906 Z M 2 0 " clip-rule="nonzero"/></clipPath><clipPath id="a2f19bbc95"><rect x="0" width="371" y="0" height="113"/></clipPath></defs><g clip-path="url(#0bbacc869b)"><path fill="#ffffff" d="M 0.828125 0 L 374.171875 0 L 374.171875 112.003906 L 0.828125 112.003906 Z M 0.828125 0 " fill-opacity="1" fill-rule="nonzero"/><path fill="#05123a" d="M 0.828125 0 L 374.171875 0 L 374.171875 112.003906 L 0.828125 112.003906 Z M 0.828125 0 " fill-opacity="1" fill-rule="nonzero"/></g><g clip-path="url(#060cf5bab9)"><g transform="matrix(1, 0, 0, 1, 2, 0)"><g clip-path="url(#a2f19bbc95)"><g fill="#ffffff" fill-opacity="1"><g transform="translate(0.403836, 102.363393)"><g><path d="M 93.15625 -94.234375 L 93.15625 -78.609375 L 33.109375 -18.84375 L 94.625 -18.84375 L 94.625 0 L 3.5 0 L 3.5 -18.171875 L 61.375 -75.375 L 7.40625 -75.375 L 7.40625 -94.234375 Z M 93.15625 -94.234375 "/></g></g></g><g fill="#ffffff" fill-opacity="1"><g transform="translate(98.799295, 102.363393)"><g><path d="M 86.546875 -56.8125 L 86.546875 -39.03125 L 34.859375 -39.03125 L 34.859375 -18.84375 L 97.453125 -18.84375 L 97.453125 0 L 10.09375 0 L 10.09375 -94.234375 L 95.96875 -94.234375 L 95.96875 -75.375 L 34.859375 -75.375 L 34.859375 -56.8125 Z M 86.546875 -56.8125 "/></g></g></g><g fill="#ffffff" fill-opacity="1"><g transform="translate(199.483013, 102.363393)"><g><path d="M 86.421875 0 L 10.09375 0 L 10.09375 -94.234375 L 34.859375 -94.234375 L 34.859375 -19.109375 L 86.421875 -19.109375 Z M 86.421875 0 "/></g></g></g><g fill="#ffffff" fill-opacity="1"><g transform="translate(276.475853, 102.363393)"><g><path d="M 1.75 -75.375 L 1.75 -94.234375 L 92.203125 -94.234375 L 92.203125 -75.375 L 59.359375 -75.375 L 59.359375 0 L 34.59375 0 L 34.59375 -75.375 Z M 1.75 -75.375 "/></g></g></g></g></g></g></svg>